<svg width="100" height="40" viewBox="0 0 100 95" fill="none" xmlns="http://www.w3.org/2000/svg">
<path d="M72.0512 25.5181L69.8678 16.5117L67.6845 25.5181L48.1706 27.7015L67.6845 29.8849L69.8678 45.5778L72.0512 29.8849L82.4222 27.7015L72.0512 25.5181ZM10.371 16.9211L0 62.0896L21.0149 57.177L27.8379 41.2111L30.2942 47.3518L34.5245 43.8039L42.9851 44.2132L48.7164 49.2623L53.7655 50.8998L51.7186 61.2708L42.3028 65.9104L23.1983 90.4733H64.1365L106.712 0L10.371 16.9211ZM61.1343 85.2879L33.2964 85.4243L45.5778 69.4584L56.0853 64.2729L59.3604 47.3518L51.1727 44.6226L44.8955 39.1642L32.7505 38.6183L32.2047 39.0277L27.9744 28.3838L17.4669 52.9467L6.55009 55.5394L14.4648 21.1514L98.3881 6.27719L61.1343 85.2879ZM34.2516 50.6269L42.0298 50.8998L39.1642 47.0789L34.2516 50.6269Z" fill="black"/>
</svg>
