<svg xmlns="http://www.w3.org/2000/svg" width="937.263" height="341.9"><path d="M253.488 108.09V52.158c-.407-6.373 2.42-9.68 9.49-8.97h85.893c5.82.113 9.2 2.66 9.11 8.675v57.114c.196 6.34-2.705 9.535-8.81 9.48h-85.89c-6.46-.257-9.624-3.81-9.786-10.365zM509.88 71.048c14.19-.152 13.413-27.86-.59-27.86H407.536v27.86H509.88zm0 47.41c14.19-.153 13.413-27.86-.59-27.86H407.536v27.86H509.88zm70.06-116.48V.28h53.72v42.907h-53.722V1.98zM526.483.28h-353.31l-47.448 110.725L77.365.28H.28v162.45h43.64V43.188L96.538 162.73h54.044l50.96-119.543v75.27c.51 32.147 19.164 45.578 51.948 44.274h531.857l-29.197-44.27h-57.58V.28h-50.15v118.176h-14.76V59.24h-53.72v59.216h-15.084c.973-27.23-14.155-37.35-38.372-37.816 26.935.41 38.2-13.464 38.372-37.453C565.403 13.93 551.913.415 526.484.28" fill="#f03742" fill-rule="evenodd"/><path d="M253.488 108.09V52.158c-.407-6.373 2.42-9.68 9.49-8.97h85.893c5.82.113 9.2 2.66 9.11 8.675v57.114c.196 6.34-2.705 9.535-8.81 9.48h-85.89c-6.46-.257-9.624-3.81-9.786-10.365zM509.88 71.048c14.19-.152 13.413-27.86-.59-27.86H407.536v27.86H509.88zm0 47.41c14.19-.153 13.413-27.86-.59-27.86H407.536v27.86H509.88zm70.06-116.48V.28h53.72v42.907h-53.722V1.98zM526.483.28h-353.31l-47.448 110.725L77.365.28H.28v162.45h43.64V43.188L96.538 162.73h54.044l50.96-119.543v75.27c.51 32.147 19.164 45.578 51.948 44.274h531.857l-29.197-44.27h-57.58V.28h-50.15v118.176h-14.76V59.24h-53.72v59.216h-15.084c.973-27.23-14.155-37.35-38.372-37.816 26.935.41 38.2-13.464 38.372-37.453C565.403 13.93 551.913.415 526.484.28z" fill="none" stroke="#f03d2b" stroke-width=".5.462" stroke-miterlimit="22.926"/><path d="M611.827 284.66v-53.015c-.42-6.04 2.51-9.175 9.835-8.5h89.007c6.02.105 9.52 2.52 9.43 8.22V285.5c.2 6.007-2.807 9.036-9.13 8.984h-89c-6.698-.245-9.977-3.613-10.146-9.825zm-204.292 9.823v47.138h-49.56V181.03h439.437l91.453 138.683V162.73h48.115v178.89h-85.6l-80.5-122.07v74.933c0 35.13-13.176 47.138-50.768 47.138H611.787c-37.78 0-46.93-13.12-46.93-47.13v-71.43H407.534v30.107h118.95v41.323h-118.95" fill="#f03742" fill-rule="evenodd"/><path d="M611.827 284.66v-53.015c-.42-6.04 2.51-9.175 9.835-8.5h89.007c6.02.105 9.52 2.52 9.43 8.22V285.5c.2 6.007-2.807 9.036-9.13 8.984h-89c-6.698-.245-9.977-3.613-10.146-9.825zm-204.292 9.823v47.138h-49.56V181.03h439.437l91.453 138.683V162.73h48.115v178.89h-85.6l-80.5-122.07v74.933c0 35.13-13.176 47.138-50.768 47.138H611.787c-37.78 0-46.93-13.12-46.93-47.13v-71.43H407.534v30.107h118.95v41.323h-118.95z" fill="none" stroke="#f03d2b" stroke-width=".5.462" stroke-miterlimit="22.926"/><path d="M.28 181.03h339.66v160.59H.28V181.03" fill="#afb3b1" fill-rule="evenodd"/><path d="M.28 181.03h339.66v160.59H.28V181.03z" fill="none" stroke="#525151" stroke-width=".5.462" stroke-miterlimit="22.926"/><path d="M890.46 118.456L812.53.28h124.45v118.176h-46.52" fill="#afb3b1" fill-rule="evenodd"/><path d="M890.46 118.456L812.53.28h124.45v118.176h-46.52z" fill="none" stroke="#525151" stroke-width=".5.462" stroke-miterlimit="22.926"/></svg>